<?xml version="1.0" standalone="no"?>
<!DOCTYPE svg PUBLIC "-//W3C//DTD SVG 1.1//EN" "http://www.w3.org/Graphics/SVG/1.1/DTD/svg11.dtd" >
<svg xmlns="http://www.w3.org/2000/svg">
<metadata></metadata>
<defs>
<font id="helveticamedium" horiz-adv-x="1138" >
<font-face units-per-em="2048" ascent="1638" descent="-410" />
<missing-glyph horiz-adv-x="569" />
<glyph horiz-adv-x="2048" />
<glyph horiz-adv-x="2048" />
<glyph unicode="&#xd;" horiz-adv-x="681" />
<glyph unicode=" "  horiz-adv-x="569" />
<glyph unicode="&#x09;" horiz-adv-x="569" />
<glyph unicode="&#xa0;" horiz-adv-x="569" />
<glyph unicode="!" horiz-adv-x="569" d="M184 0v209h199v-209h-199zM184 985v485h199v-485l-49 -635h-101z" />
<glyph unicode="&#x22;" horiz-adv-x="727" d="M143 948v522h150v-522h-150zM434 948v522h150v-522h-150z" />
<glyph unicode="#" d="M57 430l19 129h211l39 291h-211l18 129h211l59 430h138l-60 -430h254l60 430h137l-60 -430h211l-18 -129h-211l-41 -291h211l-18 -129h-211l-60 -430h-135l59 430h-256l-59 -430h-135l59 430h-211zM422 559h256l39 291h-254z" />
<glyph unicode="$" d="M66 436h180q10 -166 65.5 -233.5t206.5 -91.5v542q-94 23 -156.5 46.5t-131 67.5t-102.5 116.5t-34 173.5q0 168 122 283.5t302 115.5v131h96v-131q49 -4 93.5 -12t104.5 -35t104.5 -65.5t77 -110.5t36.5 -166h-174q-12 96 -62.5 155.5t-179.5 84.5v-490 q70 -20 102 -30.5t86 -29t79.5 -33.5t62.5 -38.5t53.5 -49.5t35 -60.5t25.5 -77.5t7 -97q0 -123 -45 -214t-118 -137t-145.5 -67.5t-142.5 -21.5v-197h-96v197q-211 12 -331.5 119.5t-120.5 355.5zM274 1069q0 -100 70 -156.5t174 -74.5v469q-113 0 -178.5 -70t-65.5 -168z M614 111q129 0 200 74.5t71 183.5q0 82 -46 144t-114 83l-111 35v-520z" />
<glyph unicode="%" horiz-adv-x="1820" d="M80 1077q0 145 102.5 245.5t247.5 100.5q143 0 245.5 -101t102.5 -245q0 -145 -102.5 -247.5t-245.5 -102.5q-145 0 -247.5 101.5t-102.5 248.5zM223 1077q0 -92 60.5 -149.5t144.5 -57.5q88 0 147.5 60.5t59.5 146.5t-59.5 144.5t-145.5 58.5t-146.5 -59.5t-60.5 -143.5 zM449 -39l808 1479h113l-811 -1479h-110zM1042 336q0 145 102.5 245.5t248.5 100.5q143 0 245.5 -101.5t102.5 -244.5q0 -145 -102.5 -247.5t-245.5 -102.5q-145 0 -248 101.5t-103 248.5zM1186 336q0 -92 60.5 -149.5t144.5 -57.5q88 0 147 60.5t59 146.5t-59 144.5 t-145 58.5t-146.5 -59.5t-60.5 -143.5z" />
<glyph unicode="&#x26;" horiz-adv-x="1366" d="M90 354q0 156 66.5 253.5t265.5 209.5q-90 111 -123 174.5t-33 151.5q0 135 93.5 231t255 96t245.5 -90t84 -213q0 -74 -23.5 -135t-70.5 -110.5t-80 -75t-90 -64.5l268 -319q39 104 60 229h170q-15 -185 -119 -375l262 -317h-234l-137 168q-86 -98 -182 -148.5 t-246 -50.5q-129 0 -221 43t-134 109.5t-59.5 124t-17.5 108.5zM270 369q0 -84 51.5 -143.5t107.5 -80t106 -20.5q200 0 319 164l-332 405q-137 -88 -194.5 -152.5t-57.5 -172.5zM440 1155q1 -111 146 -256q53 37 84.5 63.5t65.5 80t34 110.5q0 88 -49 125t-109 37 q-53 0 -90 -17.5t-53 -45t-22.5 -51t-6.5 -46.5z" />
<glyph unicode="'" horiz-adv-x="391" d="M121 948v522h149v-522h-149z" />
<glyph unicode="(" horiz-adv-x="681" d="M139 535q0 260 86 489t260 477h125q-82 -156 -119.5 -234.5t-81.5 -205.5t-60.5 -262t-16.5 -314q0 -231 66.5 -425.5t213.5 -483.5h-120q-182 274 -267.5 484t-85.5 475z" />
<glyph unicode=")" horiz-adv-x="681" d="M70 1501h120q182 -274 267.5 -484t85.5 -474q0 -260 -86 -489.5t-260 -477.5h-125q82 156 119.5 234.5t81.5 205.5t60.5 262.5t16.5 313.5q0 231 -66.5 425.5t-213.5 483.5z" />
<glyph unicode="*" horiz-adv-x="796" d="M80 1210l41 113l215 -78v225h123v-225l215 78l41 -113l-221 -69l137 -189l-101 -69l-133 192l-133 -192l-100 69l137 189z" />
<glyph unicode="+" horiz-adv-x="1196" d="M80 442v150h444v442h150v-442h442v-150h-442v-442h-150v442h-444z" />
<glyph unicode="," horiz-adv-x="569" d="M178 0v217h213v-201q0 -78 -19.5 -138t-43 -92t-58 -52.5t-53 -26.5t-39.5 -8v94q109 10 109 207h-109z" />
<glyph unicode="-" horiz-adv-x="681" d="M90 475v184h502v-184h-502z" />
<glyph unicode="." horiz-adv-x="569" d="M178 0v217h213v-217h-213z" />
<glyph unicode="/" horiz-adv-x="569" d="M-35 -39l504 1548h135l-502 -1548h-137z" />
<glyph unicode="0" d="M76 700.5q0 100.5 11 192.5t44 195.5t85 178t143.5 124t210 49.5t209.5 -49.5t143.5 -124t85 -178t44 -195.5t11.5 -192.5t-11.5 -192.5t-44 -195.5t-85 -178.5t-143.5 -124t-209.5 -49t-210 49t-143.5 124t-85 178.5t-44 195.5t-11 192.5zM268 700.5 q0 -577.5 301 -577.5t301 577.5t-301 577.5t-301 -577.5z" />
<glyph unicode="1" d="M207 1022v143q80 6 126 12.5t93 23t74.5 46t52.5 76.5t41 117h141v-1440h-192v1022h-336z" />
<glyph unicode="2" d="M53 0q8 211 94 345t244 226l191 111q78 45 109.5 65.5t76.5 62.5t61.5 91t16.5 117q0 102 -69.5 181t-215.5 79q-78 0 -134 -29.5t-84 -64.5t-45 -94.5t-21.5 -88t-6.5 -77.5h-180q0 133 38 232t91 152.5t127 84t129 39t113 8.5q193 0 321.5 -117t128.5 -313 q0 -92 -27.5 -166t-87 -131.5t-116.5 -95t-154 -89.5l-149 -82q-225 -125 -248 -276h782v-170h-985z" />
<glyph unicode="3" d="M70 440h186q2 -61 13.5 -108t41 -99.5t94 -81t158.5 -28.5q139 0 226.5 76.5t87.5 201.5q0 264 -336 265q-12 0 -41 -1t-41 -1v155q61 -4 94 -4q119 0 196.5 55.5t77.5 180.5q0 84 -61 155.5t-205 71.5q-74 0 -127 -24.5t-79.5 -54.5t-44 -80t-21.5 -77.5t-8 -72.5h-177 q0 70 11.5 131t43 125.5t82 109.5t135.5 75t193 30q205 0 325 -105.5t120 -273.5q0 -125 -56.5 -200t-128.5 -97v-4q240 -78 240 -336q0 -195 -130 -329t-388 -134q-145 0 -266 64q-193 100 -215 415z" />
<glyph unicode="4" d="M51 350v176l660 914h149v-934h211v-156h-211v-350h-180v350h-629zM217 506h463v653h-4z" />
<glyph unicode="5" d="M66 358h186q12 -121 95 -181t210 -60q137 0 220 95t83 234q0 150 -90 235t-229 85q-162 0 -267 -137l-155 8l108 772h746v-176h-611l-61 -395q117 90 279 90q188 0 330.5 -125t142.5 -336q0 -57 -10.5 -114.5t-44 -131.5t-88 -129t-153 -93t-227.5 -38q-78 0 -148.5 17.5 t-140 59.5t-116.5 124t-59 196z" />
<glyph unicode="6" d="M78 670q0 133 24.5 256t80 244.5t165 195.5t262.5 74q68 0 134.5 -19.5t130 -61.5t106.5 -120t49 -182h-176q-39 221 -248 221q-98 0 -171 -59.5t-106.5 -151.5t-49 -172t-15.5 -150l4 -4q102 176 342 177q72 0 145.5 -25t144.5 -74t116 -142t45 -216q0 -211 -137 -361 q-63 -70 -143.5 -104.5t-221.5 -34.5q-96 0 -198.5 49t-172.5 160q-111 174 -110 500zM289 442q0 -129 77.5 -224t225.5 -95q129 0 205.5 91t76.5 239q0 117 -69.5 210t-220.5 93q-143 0 -219 -89.5t-76 -224.5z" />
<glyph unicode="7" d="M76 1233v176h995v-158q-66 -68 -140.5 -172t-167.5 -263t-170 -375t-114 -441h-198q37 289 205.5 637t381.5 596h-792z" />
<glyph unicode="8" d="M78 414q0 252 244 350q-195 74 -195 280q0 63 20.5 126t66.5 126.5t137 103.5t212 40q221 0 333 -113t112 -258q0 -72 -18.5 -128t-52.5 -91t-56.5 -50.5t-57.5 -33.5q131 -55 183.5 -151.5t52.5 -198.5q0 -190 -124 -322.5t-364 -132.5q-205 0 -346 111 q-147 117 -147 342zM270 410q0 -49 13.5 -94.5t45 -91.5t96 -73.5t153.5 -27.5q289 0 288 272q0 139 -84 210t-215 71q-143 0 -220 -79t-77 -187zM313 1053q0 -98 75 -160t177 -62q115 0 185.5 66t70.5 166q0 82 -63.5 148.5t-204.5 66.5q-129 0 -184.5 -68.5t-55.5 -156.5z " />
<glyph unicode="9" d="M86 946q0 209 123 351.5t340 142.5q131 0 228 -49.5t148.5 -118t81 -166.5t38 -173t8.5 -161q0 -45 -3 -94t-14.5 -133t-32 -158t-60.5 -154.5t-92 -138t-135 -95.5t-186 -38q-119 0 -208 40t-134 102.5t-65.5 123t-20.5 119.5h181q8 -111 71.5 -173t171.5 -62 q147 0 229.5 129t116.5 409l-4 4q-39 -80 -132 -126t-197 -46q-203 0 -328 126t-125 339zM272 954q0 -311 293 -311q43 0 84 12.5t88 44t76 101t29 170.5q0 133 -73 220t-218 87q-125 0 -202 -89t-77 -235z" />
<glyph unicode=":" horiz-adv-x="569" d="M178 0v217h213v-217h-213zM178 840v217h213v-217h-213z" />
<glyph unicode=";" horiz-adv-x="569" d="M178 0v217h213v-201q0 -78 -19.5 -138t-43 -92t-58 -52.5t-53 -26.5t-39.5 -8v94q109 10 109 207h-109zM178 840v217h213v-217h-213z" />
<glyph unicode="&#x3c;" horiz-adv-x="1196" d="M98 446v144l1000 424v-164l-799 -332l799 -332v-163z" />
<glyph unicode="=" horiz-adv-x="1196" d="M80 236v149h1036v-149h-1036zM80 649v150h1036v-150h-1036z" />
<glyph unicode="&#x3e;" horiz-adv-x="1196" d="M98 23v163l799 332l-799 332v164l1000 -424v-144z" />
<glyph unicode="?" d="M115 1010q4 92 11 141t44 119.5t106 124.5q121 94 297 94q182 0 308.5 -106.5t126.5 -295.5q0 -96 -41 -163.5t-152 -173.5q-80 -78 -108.5 -112t-50 -99.5t-19.5 -163.5h-180q0 164 37.5 240.5t156.5 199.5q109 113 136.5 157t27.5 128q0 37 -11 73.5t-37 74.5t-78 61.5 t-122 23.5q-272 1 -272 -323h-180zM453 0v209h198v-209h-198z" />
<glyph unicode="@" horiz-adv-x="2078" d="M301 739q0 319 227.5 544.5t544.5 225.5q291 0 498 -182t207 -457q0 -131 -50.5 -247.5t-126 -188.5t-159.5 -113.5t-154 -41.5q-55 0 -92 32.5t-39 96.5l-4 -2q-119 -127 -246 -127q-129 0 -215 96t-86 231q0 219 134 392t339 173q162 1 236 -159l41 127h139 q-29 -109 -79 -278t-77.5 -267t-27.5 -123q0 -59 43 -59q104 0 197.5 139t93.5 303q0 240 -166 384t-406 144q-270 0 -446 -189t-176 -466q0 -272 184 -455.5t452 -183.5q143 0 276.5 62.5t221.5 171.5h137q-100 -168 -271 -264.5t-368 -96.5q-330 0 -556 225.5t-226 552.5z M774 625q0 -88 48 -143.5t124 -55.5q123 0 214 137.5t91 272.5q0 76 -50 132t-118 56q-129 0 -219 -130t-90 -269z" />
<glyph unicode="A" horiz-adv-x="1366" d="M29 0l553 1470h225l532 -1470h-217l-145 428h-590l-154 -428h-204zM449 604h456l-217 647h-4z" />
<glyph unicode="B" horiz-adv-x="1366" d="M152 0v1470h647q197 0 306 -105t109 -265q0 -215 -196 -307q53 -23 85 -40.5t81 -57.5t74.5 -106.5t25.5 -154.5q0 -186 -132 -310t-368 -124h-632zM350 170h424q152 0 231.5 71.5t79.5 196.5q0 248 -344 248h-391v-516zM350 848h359q152 0 229.5 54t77.5 183 q0 106 -72 160.5t-233 54.5h-361v-452z" />
<glyph unicode="C" horiz-adv-x="1478" d="M90 743q0 344 184.5 555t501.5 211q268 0 424.5 -140t179.5 -341h-192q-20 92 -66.5 155.5t-109 94.5t-118.5 43t-118 12q-209 0 -345 -152.5t-136 -430.5q0 -612 487 -613q57 0 112.5 16.5t119 56.5t114 125t74.5 206h193q-16 -115 -56.5 -207t-87.5 -151.5 t-109.5 -102.5t-115.5 -65.5t-113.5 -35t-94.5 -15.5t-66 -3q-131 0 -246 44t-210 134t-150.5 245t-55.5 359z" />
<glyph unicode="D" horiz-adv-x="1478" d="M166 0v1470h596q285 0 451.5 -196.5t166.5 -517.5q0 -104 -18.5 -205.5t-63.5 -203t-114.5 -177.5t-180 -123t-249.5 -47h-588zM365 170h385q197 0 311.5 149.5t114.5 423.5q0 272 -117 414.5t-324 142.5h-370v-1130z" />
<glyph unicode="E" horiz-adv-x="1366" d="M176 0v1470h1071v-176h-872v-450h805v-176h-805v-492h887v-176h-1086z" />
<glyph unicode="F" horiz-adv-x="1251" d="M176 0v1470h1018v-176h-819v-450h721v-176h-721v-668h-199z" />
<glyph unicode="G" horiz-adv-x="1593" d="M98 748q0 139 43 271t125 243.5t219.5 179t309.5 67.5q225 0 408 -127t214 -358h-192q-29 119 -108 192.5t-158.5 95t-174.5 21.5q-207 0 -344 -158.5t-137 -437.5q0 -121 22.5 -222t75 -191.5t151.5 -141.5t241 -51q182 0 301 94q162 129 161 391h-458v170h645v-786 h-129l-47 190q-76 -104 -206 -166.5t-280 -62.5q-281 0 -450 166q-104 98 -159.5 226t-64 207t-8.5 188z" />
<glyph unicode="H" horiz-adv-x="1478" d="M158 0v1470h198v-608h768v608h199v-1470h-199v686h-768v-686h-198z" />
<glyph unicode="I" horiz-adv-x="569" d="M186 0v1470h199v-1470h-199z" />
<glyph unicode="J" horiz-adv-x="1024" d="M35 328v145h186v-102q0 -240 221 -240q236 0 236 254v1085h199v-1073q0 -123 -37 -212t-101.5 -136t-135.5 -67.5t-150 -20.5q-121 0 -208 37t-130 96.5t-61.5 116.5t-18.5 117z" />
<glyph unicode="K" horiz-adv-x="1366" d="M156 0v1470h198v-712l713 712h274l-612 -593l629 -877h-258l-514 737l-232 -221v-516h-198z" />
<glyph unicode="L" d="M156 0v1470h198v-1294h746v-176h-944z" />
<glyph unicode="M" horiz-adv-x="1705" d="M150 0v1470h284l420 -1243h4l418 1243h283v-1470h-193v868q0 10 2 148.5t2 218.5h-4l-414 -1235h-196l-414 1233h-4q0 -80 2 -217t2 -148v-868h-192z" />
<glyph unicode="N" horiz-adv-x="1478" d="M156 0v1470h235l735 -1187h4v1187h193v-1470h-223l-748 1188h-4v-1188h-192z" />
<glyph unicode="O" horiz-adv-x="1593" d="M80 735.5q0 102.5 21.5 203.5t73.5 205.5t131 184.5t206 130t284.5 50t284.5 -50t206 -130t131 -184.5t73.5 -205.5t21.5 -203.5t-21.5 -204t-73.5 -206t-131 -184.5t-206 -130t-284.5 -50t-284.5 50t-206 130t-131 184.5t-73.5 206t-21.5 204zM285 735q0 -264 138 -431 t373.5 -167t374 167t138.5 431t-138.5 431t-374 167t-373.5 -167t-138 -431z" />
<glyph unicode="P" horiz-adv-x="1366" d="M176 0v1470h662q201 0 318.5 -115.5t117.5 -297.5q0 -111 -40 -205t-142.5 -162.5t-253.5 -68.5h-463v-621h-199zM375 791h395q299 0 299 264q0 245 -289 245h-2h-403v-509z" />
<glyph unicode="Q" horiz-adv-x="1593" d="M80 735.5q0 102.5 21.5 203.5t73.5 205.5t131 184.5t206 130t284.5 50t284.5 -50t206 -130t131 -184.5t73.5 -205.5t21.5 -204q0 -156 -52 -310.5t-161 -264.5l201 -156l-100 -119l-225 174q-154 -98 -379 -98q-158 0 -285 50t-206 130t-131 184.5t-73.5 206t-21.5 204z M285 735q0 -264 138 -431t374 -167q123 0 217 47l-154 119l101 123l186 -145q162 162 162 454q0 264 -138.5 431t-374 167t-373.5 -167t-138 -431z" />
<glyph unicode="R" horiz-adv-x="1478" d="M180 0v1470h680q98 0 179 -18t153 -61t111.5 -123t39.5 -193q0 -100 -34.5 -176t-72.5 -108.5t-97 -67.5q41 -16 63.5 -29.5t51 -43t44 -80t17.5 -124.5l12 -266q2 -63 15.5 -93t58.5 -54v-33h-244q-35 109 -35 369q0 53 -8 93t-32.5 82t-81 64.5t-140.5 22.5h-481v-631 h-199zM379 801h461q61 0 109 10t93 34.5t71 78t26 131.5q0 245 -263 245h-2h-495v-499z" />
<glyph unicode="S" horiz-adv-x="1366" d="M100 475h187q0 -182 119.5 -263t285.5 -81q63 0 121.5 10.5t122 34t102.5 76.5t39 127q0 113 -64.5 165t-248.5 95l-301 70q-313 74 -313 346q0 190 128 322t377 132q147 0 256 -34.5t166.5 -83t93 -118t45 -121t13.5 -112.5h-187q-6 156 -112.5 227.5t-251.5 71.5 q-55 0 -106.5 -10t-106.5 -34.5t-89 -80t-34 -133.5q0 -145 174 -186l420 -96q334 -80 334 -393q0 -125 -53.5 -216.5t-141.5 -138.5t-183 -68.5t-198 -21.5q-289 0 -444 141q-86 78 -118 167t-32 206z" />
<glyph unicode="T" horiz-adv-x="1251" d="M29 1294v176h1194v-176h-498v-1294h-199v1294h-497z" />
<glyph unicode="U" horiz-adv-x="1478" d="M162 489v981h198v-925q0 -115 33 -198t88.5 -127t118 -63.5t133.5 -19.5q74 0 138.5 19.5t123 62.5t92 125t33.5 197v929h199v-954q0 -240 -151.5 -397.5t-440.5 -157.5q-279 0 -422 152.5t-143 375.5z" />
<glyph unicode="V" horiz-adv-x="1366" d="M41 1470h221l420 -1253h4l416 1253h223l-537 -1470h-210z" />
<glyph unicode="W" horiz-adv-x="1933" d="M33 1470h215l274 -1196h4l330 1196h217l330 -1196h4l274 1196h220l-388 -1470h-208l-336 1219h-4l-340 -1219h-209z" />
<glyph unicode="X" horiz-adv-x="1366" d="M39 0l526 754l-493 716h250l372 -563l373 563h238l-494 -716l516 -754h-246l-395 604l-407 -604h-240z" />
<glyph unicode="Y" horiz-adv-x="1366" d="M29 1470h231l422 -706l422 706h233l-555 -878v-592h-198v592z" />
<glyph unicode="Z" horiz-adv-x="1251" d="M47 0v166l901 1128h-833v176h1089v-172l-905 -1122h905v-176h-1157z" />
<glyph unicode="[" horiz-adv-x="569" d="M129 -401v1880h383v-146h-221v-1589h221v-145h-383z" />
<glyph unicode="\" horiz-adv-x="569" d="M-35 1509h135l504 -1548h-137z" />
<glyph unicode="]" horiz-adv-x="569" d="M57 -256h222v1589h-222v146h383v-1880h-383v145z" />
<glyph unicode="^" horiz-adv-x="960" d="M-29 541l437 868h147l434 -868h-158l-350 704l-350 -704h-160z" />
<glyph unicode="_" d="M0 -154h1139v-102h-1139v102z" />
<glyph unicode="`" horiz-adv-x="681" d="M29 1503h221l182 -289h-137z" />
<glyph unicode="a" d="M74 279q0 35 5 66.5t24.5 78.5t52 83t95 66.5t148.5 40.5l297 37q94 8 95 127q0 174 -252 174q-72 0 -122 -19.5t-75 -55t-34 -63.5t-15 -69h-166q12 356 442 357q35 0 75 -4t101.5 -22.5t107.5 -48.5t80 -88t34 -136v-617q0 -63 59 -63q18 0 59 8v-131q-78 -20 -98 -20 q-109 0 -146.5 44t-43.5 119q-160 -174 -387 -174q-147 0 -241.5 86t-94.5 224zM260 305q0 -186 195 -186q129 0 230 74t101 178v176q-45 -35 -297 -68q-43 -6 -74.5 -14t-71.5 -25.5t-61.5 -52.5t-21.5 -82z" />
<glyph unicode="b" d="M119 0v1470h180v-534h4q113 162 309 166q207 0 327 -150.5t120 -384.5q0 -104 -23.5 -202.5t-74 -190.5t-147.5 -148.5t-226 -56.5q-193 0 -295 164h-4v-133h-170zM291 485q0 -190 91 -275t202 -85q141 0 214.5 114t73.5 300q0 401 -292 401q-289 0 -289 -455z" />
<glyph unicode="c" horiz-adv-x="1024" d="M61 506q0 264 130.5 430t383.5 166q193 0 291.5 -114.5t110.5 -276.5h-174q-37 229 -254 229q-154 0 -224.5 -119t-70.5 -284q0 -412 293 -412q92 0 162.5 66.5t93.5 187.5h174q-8 -72 -33.5 -137.5t-73 -130t-133.5 -103.5t-196 -39q-221 0 -350.5 149.5t-129.5 387.5z " />
<glyph unicode="d" d="M72 567q0 233 119.5 384t326.5 151q88 0 161 -37t98.5 -66.5t60.5 -78.5h4v550h180v-1470h-170v147h-4q-96 -178 -305 -178q-129 0 -226.5 56.5t-147.5 148.5t-73.5 190.5t-23.5 202.5zM258 539q0 -186 74 -300t215 -114q111 0 202 85t91 275q0 455 -289 455 q-293 0 -293 -401z" />
<glyph unicode="e" d="M82 506q0 264 130 430t384 166q227 0 344 -167t117 -458h-783q0 -170 79 -261t233 -91q117 0 193.5 70.5t82.5 140.5h180q-6 -57 -54 -145.5t-136 -147.5q-111 -74 -291 -74q-221 0 -350 149.5t-129 387.5zM274 621h596q-20 319 -299 319q-123 0 -210 -96t-87 -223z" />
<glyph unicode="f" horiz-adv-x="569" d="M29 922v149h147v184q0 236 279 236q25 0 82 -4v-162q-45 4 -74 4q-57 0 -82 -29.5t-25 -95.5v-133h181v-149h-181v-922h-180v922h-147z" />
<glyph unicode="g" d="M82 567q0 233 120 384t326 151q68 0 124.5 -18.5t96 -53.5t59 -57.5t44.5 -59.5v158h170v-983q0 -47 -1 -79t-11.5 -94t-27.5 -105t-54 -95.5t-88.5 -86.5t-132 -56.5t-183.5 -22.5q-45 0 -88 5.5t-100 26t-99 53t-77 93t-45 142.5h180q33 -170 242 -170q57 0 102 10 t77 31.5t54.5 42t35.5 57.5t21.5 59.5t11.5 64.5t3 58.5v53.5v45q-90 -152 -289 -152q-129 0 -226.5 56.5t-147.5 148.5t-73.5 190.5t-23.5 202.5zM268 539q0 -186 74 -300t215 -114q111 0 202 85t91 275q0 455 -289 455q-293 0 -293 -401z" />
<glyph unicode="h" d="M133 0v1470h180v-542h4q131 174 314 174q53 0 102 -9.5t100.5 -35t88 -65.5t60.5 -107.5t24 -155.5v-729h-181v700q0 119 -46 179.5t-167 60.5q-127 0 -213 -85t-86 -271v-584h-180z" />
<glyph unicode="i" horiz-adv-x="454" d="M137 0v1071h180v-1071h-180zM137 1266v204h180v-204h-180z" />
<glyph unicode="j" horiz-adv-x="454" d="M-33 -268h37q84 0 108.5 21.5t24.5 109.5v1208h180v-1229q0 -37 -3 -64.5t-17 -69.5t-42 -69.5t-82 -48t-130 -20.5q-37 0 -76 6v156zM137 1266v204h180v-204h-180z" />
<glyph unicode="k" horiz-adv-x="1024" d="M137 0v1470h174v-852l461 453h229l-409 -399l434 -672h-231l-334 541l-150 -135v-406h-174z" />
<glyph unicode="l" horiz-adv-x="454" d="M137 0v1470h180v-1470h-180z" />
<glyph unicode="m" horiz-adv-x="1705" d="M133 0v1071h170v-151h4q123 182 324 182q68 0 120 -17.5t84.5 -50.5t47 -53t32.5 -53q55 61 90 92t97.5 56.5t140.5 25.5q51 0 101.5 -15.5t105.5 -51.5t90 -111.5t35 -182.5v-741h-180v692q0 119 -45 183.5t-154 64.5t-180.5 -87t-71.5 -200v-653h-180v741 q0 82 -39 140.5t-129 58.5q-45 0 -89 -15.5t-90 -52t-75 -111.5t-29 -177v-584h-180z" />
<glyph unicode="n" d="M133 0v1071h170v-151h4q123 182 324 182q53 0 102 -9.5t100.5 -35t88 -65.5t60.5 -107.5t24 -155.5v-729h-181v659q0 145 -51 213t-178 68q-45 0 -89 -15.5t-90 -52t-75 -111.5t-29 -177v-584h-180z" />
<glyph unicode="o" d="M72 536.5q0 229.5 129 397.5t368.5 168t368.5 -168t129 -397.5t-129 -397.5t-368.5 -168t-368.5 168t-129 397.5zM258 536.5q0 -63.5 13.5 -126t45 -131t97 -110.5t155.5 -42t156 42t97.5 110.5t45 131t13.5 126t-13.5 126t-45 131t-97.5 110.5t-156 42t-155.5 -42 t-97 -110.5t-45 -131t-13.5 -126z" />
<glyph unicode="p" d="M119 -424v1495h170v-151h4q35 49 60.5 78.5t98 66.5t160.5 37q207 0 327 -150.5t120 -384.5q0 -104 -23.5 -202.5t-74 -190.5t-147.5 -148.5t-226 -56.5q-195 0 -285 144h-4v-537h-180zM291 485q0 -190 91 -275t202 -85q141 0 214.5 113.5t73.5 300.5q0 401 -292 401 q-289 0 -289 -455z" />
<glyph unicode="q" d="M72 567q0 233 119.5 384t326.5 151q88 0 161 -37t98.5 -66.5t60.5 -78.5h4v151h170v-1495h-181v537h-4q-90 -143 -284 -144q-129 0 -226.5 56.5t-147.5 148.5t-73.5 190.5t-23.5 202.5zM258 539q0 -186 74 -300t215 -114q111 0 202 85t91 275q0 455 -289 455 q-293 0 -293 -401z" />
<glyph unicode="r" horiz-adv-x="681" d="M158 0v1071h170v-178h4q121 209 301 209q27 0 47 -6v-187h-68q-123 0 -198.5 -82.5t-75.5 -203.5v-623h-180z" />
<glyph unicode="s" horiz-adv-x="1024" d="M66 344h174q2 -41 12 -71.5t36.5 -68.5t86 -58.5t149.5 -20.5q104 0 175 43t71 127q0 61 -45 92t-168 62l-209 51q-248 61 -248 260q0 166 117 254t289 88q109 0 189.5 -31t120.5 -72t64.5 -93t29.5 -83.5t5 -56.5h-174q-6 180 -254 180q-39 0 -80.5 -8t-87 -45 t-45.5 -98.5t40 -88t155 -55.5l180 -45q166 -41 233.5 -106.5t67.5 -175.5q0 -162 -118.5 -258.5t-305.5 -96.5q-121 0 -210 28t-134 65.5t-72.5 95t-34.5 96.5t-9 90z" />
<glyph unicode="t" horiz-adv-x="569" d="M29 922v149h145v299h180v-299h172v-149h-172v-697q0 -84 109 -84h63v-141q-27 -2 -58.5 -6t-50 -6t-26.5 -2q-123 0 -170 60t-47 169v707h-145z" />
<glyph unicode="u" d="M139 301v770h180v-711q0 -235 205 -235h2q82 0 141.5 32.5t92.5 88t47 114t14 121.5v590h180v-1071h-170v156l-4 4q-59 -98 -137 -144.5t-203 -46.5q-141 0 -244.5 79t-103.5 253z" />
<glyph unicode="v" horiz-adv-x="1024" d="M16 1071h209l279 -872h4l303 872h197l-408 -1071h-192z" />
<glyph unicode="w" horiz-adv-x="1478" d="M29 1071h196l205 -842h4l207 842h201l209 -842h4l217 842h180l-311 -1071h-187l-217 829h-4l-209 -829h-186z" />
<glyph unicode="x" horiz-adv-x="1024" d="M23 0l376 551l-358 520h231l248 -377l248 377h221l-362 -520l377 -551h-230l-266 403l-258 -403h-227z" />
<glyph unicode="y" horiz-adv-x="1024" d="M23 1071h204l285 -872h4l287 872h198q-270 -760 -385 -1051q-49 -125 -73.5 -186t-59 -123.5t-54 -84t-58.5 -41t-74 -21.5t-100 -2q-18 0 -76 16v164q51 -18 108 -18q68 0 95.5 37.5t95.5 209.5z" />
<glyph unicode="z" horiz-adv-x="1024" d="M63 0v141l646 781h-596v149h829v-147l-639 -774h658v-150h-898z" />
<glyph unicode="{" horiz-adv-x="684" d="M86 479v123q72 0 119 74t47 186v352q0 121 62.5 193t146.5 72h137v-133h-90q-94 0 -94 -168v-349q-8 -131 -68.5 -202.5t-112.5 -83.5v-4q20 -6 45 -22.5t56 -48.5t53.5 -90.5t26.5 -131.5v-346q0 -168 94 -168h90v-133h-137q-84 0 -146.5 71.5t-62.5 192.5v350 q0 115 -47 190.5t-119 75.5z" />
<glyph unicode="|" horiz-adv-x="532" d="M193 -461v2048h149v-2048h-149z" />
<glyph unicode="}" horiz-adv-x="684" d="M86 -268h90q94 0 94 168v346q4 74 26.5 132t53.5 90t55.5 48t45.5 23v4q-51 12 -111.5 83.5t-69.5 202.5v349q0 168 -94 168h-90v133h137q84 0 146.5 -72t62.5 -193v-352q0 -113 47 -186.5t119 -73.5v-123q-72 0 -119 -75.5t-47 -190.5v-350q0 -121 -62.5 -192.5 t-146.5 -71.5h-137v133z" />
<glyph unicode="~" horiz-adv-x="1196" d="M125 483q92 176 256 176q80 0 227 -65q160 -74 209 -74q39 0 75 24.5t55 50.5t50 73l74 -115q-111 -176 -256 -176q-86 0 -209 67q-127 72 -235 72q-104 0 -172 -147z" />
<glyph unicode="&#xa1;" horiz-adv-x="681" d="M242 86l49 635h100l49 -635v-485h-198v485zM242 862v209h198v-209h-198z" />
<glyph unicode="&#xa2;" d="M104 502q0 287 132.5 443.5t371.5 156.5q57 0 88 -12l54 186h79l-51 -205q82 -23 165 -111.5t99 -252.5h-168q-41 172 -139 208l-225 -790q27 -8 72 -8q109 0 184.5 55t110.5 203h174q-8 -63 -35 -129t-77 -133.5t-141 -109.5t-210 -42q-33 0 -123 14l-64 -211h-84 l70 234q-127 61 -205 188t-78 316zM285 502q0 -111 41.5 -206t107.5 -136l221 780q-16 6 -59 6q-139 0 -225 -110.5t-86 -333.5z" />
<glyph unicode="&#xa3;" d="M68 649v129h141q-88 180 -88 275q0 70 24.5 138.5t79 134t157.5 105t245 39.5q217 0 328.5 -129t111.5 -307v-30h-180v18q0 129 -78 211t-203 82q-150 0 -221.5 -84t-71.5 -168q0 -94 105 -285h342v-129h-283q18 -70 19 -135q0 -94 -61.5 -195.5t-182.5 -183.5v-2 q133 76 268 76q70 0 188.5 -36t155.5 -36q39 0 85 19.5t71 44.5l84 -135q-129 -98 -260 -99q-57 0 -202.5 46t-225.5 46q-109 0 -240 -82l-100 142q139 92 194.5 198.5t55.5 184.5q0 59 -39 147h-219z" />
<glyph unicode="&#xa4;" d="M57 1137l99 98l116 -115q121 104 297 104.5t297 -104.5l117 115l98 -98l-112 -111q102 -117 102 -307q0 -182 -102 -309l110 -115l-92 -92l-113 119q-121 -113 -305 -113t-305 113l-112 -119l-93 92l111 115q-102 127 -102 309q0 190 102 307zM217 719 q0 -150 103.5 -258.5t249 -108.5t249 108.5t103.5 258.5q0 145 -103.5 253.5t-249 108.5t-249 -108.5t-103.5 -253.5z" />
<glyph unicode="&#xa5;" d="M6 1409h205l358 -604l359 604h205l-396 -623h318v-116h-396v-174h396v-117h-396v-379h-180v379h-393v117h393v174h-393v116h315z" />
<glyph unicode="&#xa6;" horiz-adv-x="532" d="M193 -307v717h149v-717h-149zM193 717v717h149v-717h-149z" />
<glyph unicode="&#xa7;" d="M88 633q0 121 51 192.5t154 130.5q-53 59 -74.5 102.5t-21.5 102.5q0 133 92 240.5t276 107.5q68 0 129.5 -16t119.5 -56t93 -116.5t35 -185.5h-174q-2 31 -4 49t-14.5 55t-32 58.5t-59.5 39t-93 17.5q-72 0 -130 -41t-58 -125q0 -94 149 -184l299 -177 q109 -63 166.5 -137t57.5 -190.5t-57.5 -191.5t-153.5 -136q106 -113 106 -233q0 -150 -114.5 -240t-256.5 -90q-182 0 -292.5 95t-110.5 290h180q0 -229 199 -230q35 0 66.5 6.5t68.5 23t58.5 53t21.5 87.5q0 88 -113 162l-430 287q-133 88 -133 250zM258 678 q0 -117 92 -174l387 -250q70 47 106 91t36 116q0 118 -127 196l-357 220q-137 -70 -137 -199z" />
<glyph unicode="&#xa8;" horiz-adv-x="681" d="M82 1237v209h186v-209h-186zM414 1237v209h186v-209h-186z" />
<glyph unicode="&#xa9;" horiz-adv-x="1509" d="M-29 737q0 330 231.5 551t555.5 221q322 0 552 -222t230 -550q0 -332 -230 -554t-552 -222q-324 0 -555.5 222.5t-231.5 553.5zM127 737q0 -279 181 -463t450 -184q264 0 445 184.5t181 462.5q0 274 -181 458.5t-445 184.5q-266 0 -448.5 -184.5t-182.5 -458.5zM328 739 q0 209 121.5 341t326.5 132q152 0 259.5 -85t127.5 -236h-137q-18 86 -85 136t-163 50q-139 0 -217 -94t-78 -242q0 -143 83 -243.5t218 -100.5q96 0 162 54.5t80 140.5h139q-29 -152 -133 -241t-248 -89q-205 0 -330.5 136.5t-125.5 340.5z" />
<glyph unicode="&#xaa;" horiz-adv-x="757" d="M49 1016q0 182 230 209l180 20q49 8 49 78q0 80 -156 80q-143 0 -157 -109h-111q8 215 289 215q31 0 65.5 -5t83.5 -21.5t80 -56.5t31 -97v-364q0 -39 37 -39q10 0 39 4v-90q-51 -10 -66 -11q-70 0 -94.5 27t-28.5 78q-104 -104 -252 -105q-96 0 -157.5 52.5t-61.5 134.5 zM178 1038q0 -102 119 -102q86 0 150.5 44t60.5 107v80q-20 -20 -189 -41q-141 -14 -141 -88z" />
<glyph unicode="&#xab;" d="M199 473v189l321 251v-180l-215 -166l215 -166v-180zM618 473v189l322 251v-180l-215 -166l215 -166v-180z" />
<glyph unicode="&#xac;" horiz-adv-x="1196" d="M80 649v150h1036v-578h-149v428h-887z" />
<glyph unicode="&#xad;" horiz-adv-x="681" d="M90 475v184h502v-184h-502z" />
<glyph unicode="&#xae;" horiz-adv-x="1509" d="M-29 737q0 330 231.5 551t555.5 221q322 0 552 -222t230 -550q0 -332 -230 -554t-552 -222q-324 0 -555.5 222.5t-231.5 553.5zM127 737q0 -279 181 -463t450 -184q264 0 445 184.5t181 462.5q0 274 -181 458.5t-445 184.5q-266 0 -448.5 -184.5t-182.5 -458.5zM459 289 v893h340q160 0 237.5 -61.5t77.5 -192.5q0 -217 -231 -246l254 -393h-152l-235 387h-156v-387h-135zM594 791h162q51 0 82.5 4t66.5 17t51.5 44t16.5 80q0 131 -195 131h-184v-276z" />
<glyph unicode="&#xaf;" horiz-adv-x="681" d="M20 1284v117h642v-117h-642z" />
<glyph unicode="&#xb0;" horiz-adv-x="819" d="M111 1141q0 127 86 213t213 86t213 -86t86 -213t-86 -213t-213 -86t-213 86t-86 213zM209 1141q0 -82 60.5 -146.5t140 -64.5t140 64.5t60.5 146.5t-60.5 146.5t-140 64.5t-140 -64.5t-60.5 -146.5z" />
<glyph unicode="&#xb1;" horiz-adv-x="1196" d="M80 0v150h1036v-150h-1036zM80 557v150h444v329h150v-329h442v-150h-442v-330h-150v330h-444z" />
<glyph unicode="&#xb2;" horiz-adv-x="681" d="M8 575q10 229 213 343l123 67q57 31 74.5 42t49.5 37t41 53.5t9 68.5q6 53 -36 94t-136 41q-170 -1 -184 -191h-123q0 80 24.5 139.5t59.5 91.5t83 50.5t84 23.5t72 5q129 0 214.5 -71t85.5 -187q0 -106 -60.5 -168t-183.5 -123l-92 -47q-113 -59 -164 -144h500v-125 h-654z" />
<glyph unicode="&#xb3;" horiz-adv-x="681" d="M10 840h140q2 -33 8 -57.5t23.5 -52.5t53 -43t91.5 -15q197 0 196 145q0 41 -15 71t-34.5 44t-53.5 22.5t-54.5 9.5t-53.5 1h-47v104h55q168 0 168 137q0 115 -163 115q-156 0 -166 -164h-125q0 115 70.5 199t238.5 84q133 0 211 -63.5t78 -164.5q0 -76 -37 -120.5 t-84 -57.5v-4q156 -41 156 -199q0 -117 -85 -197.5t-257 -80.5q-94 0 -172 39q-126 60 -142 248z" />
<glyph unicode="&#xb4;" horiz-adv-x="681" d="M250 1214l182 289h221l-266 -289h-137z" />
<glyph unicode="&#xb6;" horiz-adv-x="1099" d="M37 1081q0 197 125 293t348 96h508v-1824h-150v1702h-243v-1702h-150v1059q-195 0 -316.5 107.5t-121.5 268.5z" />
<glyph unicode="&#xb7;" horiz-adv-x="569" d="M158 516q0 55 39 92t90 37q49 0 88 -38t39 -91q0 -51 -38 -89t-91 -38q-51 0 -89 38t-38 89z" />
<glyph unicode="&#xb8#xb8;" horiz-adv-x="681" d="M92 -416l35 82q78 -31 133 -31q115 0 115 86q0 41 -33 60.5t-66 19.5q-23 0 -79 -16l-35 39l131 176h96l-94 -127q45 8 63 8q90 0 131 -47t41 -106q0 -82 -65.5 -135.5t-175.5 -53.5q-90 0 -197 45z" />
<glyph unicode="&#xb9;" horiz-adv-x="681" d="M88 1182v94q125 8 175 36.5t77 127.5h115v-865h-146v607h-221z" />
<glyph unicode="&#xba;" horiz-adv-x="747" d="M51 1169.5q0 182.5 94.5 261t229.5 78.5t229 -78.5t94 -261t-94 -261.5t-229 -79t-229.5 79t-94.5 261.5zM188 1169.5q0 -36.5 7.5 -72.5t25 -75t57 -62.5t97 -23.5t97.5 23.5t57.5 62.5t24.5 75t7 72.5t-7 72.5t-24.5 75t-57.5 62.5t-97.5 23.5t-97 -23.5t-57 -62.5 t-25 -75t-7.5 -72.5z" />
<glyph unicode="&#xbb;" d="M199 221v180l215 166l-215 166v180l321 -251v-189zM618 221v180l216 166l-216 166v180l322 -251v-189z" />
<glyph unicode="&#xbc;" horiz-adv-x="1708" d="M150 1188v88q125 8 175 36.5t76 127.5h109v-865h-139v613h-221zM315 -39l906 1479h116l-905 -1479h-117zM858 193v122l422 549h131v-553h137v-118h-137v-193h-131v193h-422zM985 311h295v383h-4z" />
<glyph unicode="&#xbd;" horiz-adv-x="1708" d="M88 1182v94q125 8 175 36.5t77 127.5h115v-865h-146v607h-221zM242 -39l905 1479h117l-906 -1479h-116zM930 0q10 229 213 342l123 68q57 31 74.5 42t49 36.5t41 53t9.5 68.5q6 53 -36 94t-136 41q-171 0 -185 -190h-122q0 80 24.5 139.5t59 91t83 50t84 23.5t72.5 5 q129 0 214 -70.5t85 -187.5q0 -106 -60.5 -167.5t-183.5 -123.5l-92 -47q-113 -59 -164 -143h500v-125h-653z" />
<glyph unicode="&#xbe;" horiz-adv-x="1708" d="M92 840h139q2 -33 8.5 -57.5t24 -52.5t53 -43t91.5 -15q197 0 196 145q0 41 -15.5 71t-34.5 44t-53 22.5t-54.5 9.5t-53.5 1h-47v104h55q168 0 168 137q0 115 -163 115q-156 0 -166 -164h-125q0 115 70.5 199t238.5 84q133 0 211 -63.5t78 -164.5q0 -76 -37 -120.5 t-84 -57.5v-4q156 -41 156 -199q0 -117 -85 -197.5t-257 -80.5q-94 0 -173 39q-125 60 -141 248zM436 -39l905 1479h117l-905 -1479h-117zM969 193v122l422 549h131v-553h137v-118h-137v-193h-131v193h-422zM1096 311h295v383h-5z" />
<glyph unicode="&#xbf;" horiz-adv-x="1251" d="M186 -10q0 96 41 163.5t152 174.5q80 78 108.5 111.5t50 99t19.5 163.5h180q0 -164 -37.5 -240.5t-156.5 -199.5q-109 -113 -136.5 -157t-27.5 -128q0 -37 11 -73.5t37 -74.5t78 -61.5t122 -23.5q272 0 272 324h180q-4 -92 -11 -141.5t-44 -120t-106 -123.5 q-121 -94 -297 -95q-182 0 -308.5 106.5t-126.5 295.5zM543 866v209h198v-209h-198z" />
<glyph unicode="&#xc0;" horiz-adv-x="1366" d="M29 0l553 1470h225l532 -1470h-217l-145 428h-590l-154 -428h-204zM371 1903h221l182 -289h-137zM449 604h456l-217 647h-4z" />
<glyph unicode="&#xc1;" horiz-adv-x="1366" d="M29 0l553 1470h225l532 -1470h-217l-145 428h-590l-154 -428h-204zM449 604h456l-217 647h-4zM592 1614l182 289h221l-266 -289h-137z" />
<glyph unicode="&#xc2;" horiz-adv-x="1366" d="M29 0l553 1470h225l532 -1470h-217l-145 428h-590l-154 -428h-204zM385 1614l203 289h190l203 -289h-164l-135 190l-135 -190h-162zM449 604h456l-217 647h-4z" />
<glyph unicode="&#xc3;" horiz-adv-x="1366" d="M29 0l553 1470h225l532 -1470h-217l-145 428h-590l-154 -428h-204zM334 1640q31 219 213 220q59 0 139 -31l45 -19q63 -27 96 -26q37 0 60.5 17.5t30 33.5t12.5 43h102q-10 -96 -65.5 -159.5t-139.5 -63.5q-41 0 -120 26l-54 19q-90 31 -125 31q-68 0 -96 -91h-98z M449 604h456l-217 647h-4z" />
<glyph unicode="&#xc4;" horiz-adv-x="1366" d="M29 0l553 1470h225l532 -1470h-217l-145 428h-590l-154 -428h-204zM424 1636v209h186v-209h-186zM449 604h456l-217 647h-4zM756 1636v209h186v-209h-186z" />
<glyph unicode="&#xc5;" horiz-adv-x="1366" d="M29 0l553 1470h225l532 -1470h-217l-145 428h-590l-154 -428h-204zM449 604h456l-217 647h-4zM496 1718q0 82 53 135.5t135 53.5t135 -53.5t53 -135.5t-53 -135t-135 -53t-135 53t-53 135zM578 1718q0 -45 30.5 -75.5t75.5 -30.5t76 30.5t31 75.5t-31 76t-76 31 t-75.5 -31t-30.5 -76z" />
<glyph unicode="&#xc6;" horiz-adv-x="2048" d="M16 0l598 1470h1319v-176h-798v-450h729v-176h-729v-492h813v-176h-1012v428h-543l-162 -428h-215zM465 604h471v690h-199z" />
<glyph unicode="&#xc7;" horiz-adv-x="1478" d="M90 743q0 344 184.5 555t501.5 211q268 0 425 -140t179 -341h-192q-20 92 -66.5 155.5t-109 94.5t-118.5 43t-118 12q-209 0 -345 -152.5t-136 -430.5q0 -612 487 -613q57 0 112.5 16.5t119 56.5t114 125t74.5 206h193q-20 -137 -73.5 -242.5t-115 -165t-140.5 -98.5 t-136.5 -52.5t-116.5 -17.5l-68 -92q45 8 64 8q90 0 131 -47t41 -106q0 -82 -65.5 -135.5t-176.5 -53.5q-90 0 -196 45l35 82q78 -31 133 -31q115 0 114 86q0 41 -32.5 60.5t-65.5 19.5q-23 0 -80 -16l-35 39l105 141q-125 4 -233.5 50t-198.5 136.5t-142.5 243t-52.5 348.5 z" />
<glyph unicode="&#xc8;" horiz-adv-x="1366" d="M176 0v1470h1071v-176h-872v-450h805v-176h-805v-492h887v-176h-1086zM371 1903h221l182 -289h-137z" />
<glyph unicode="&#xc9;" horiz-adv-x="1366" d="M176 0v1470h1071v-176h-872v-450h805v-176h-805v-492h887v-176h-1086zM592 1614l182 289h221l-266 -289h-137z" />
<glyph unicode="&#xca;" horiz-adv-x="1366" d="M176 0v1470h1071v-176h-872v-450h805v-176h-805v-492h887v-176h-1086zM385 1614l203 289h190l203 -289h-164l-135 190l-135 -190h-162z" />
<glyph unicode="&#xcb;" horiz-adv-x="1366" d="M176 0v1470h1071v-176h-872v-450h805v-176h-805v-492h887v-176h-1086zM424 1636v209h186v-209h-186zM756 1636v209h186v-209h-186z" />
<glyph unicode="&#xcc;" horiz-adv-x="569" d="M-27 1903h222l182 -289h-137zM186 0v1470h199v-1470h-199z" />
<glyph unicode="&#xcd;" horiz-adv-x="569" d="M186 0v1470h199v-1470h-199zM195 1614l182 289h221l-266 -289h-137z" />
<glyph unicode="&#xce;" horiz-adv-x="569" d="M-12 1614l202 289h191l203 -289h-164l-135 190l-135 -190h-162zM186 0v1470h199v-1470h-199z" />
<glyph unicode="&#xcf;" horiz-adv-x="569" d="M27 1636v209h186v-209h-186zM186 0v1470h199v-1470h-199zM358 1636v209h187v-209h-187z" />
<glyph unicode="&#xd0;" horiz-adv-x="1478" d="M0 668v176h166v626h596q285 0 451.5 -196.5t166.5 -517.5q0 -39 -3 -82t-17 -121t-38 -147.5t-72 -146.5t-111.5 -132t-162.5 -91t-222 -36h-588v668h-166zM365 170h385q197 0 311.5 149.5t114.5 423.5q0 272 -117 414.5t-324 142.5h-370v-456h393v-176h-393v-498z" />
<glyph unicode="&#xd1;" horiz-adv-x="1478" d="M156 0v1470h235l735 -1187h4v1187h193v-1470h-223l-748 1188h-4v-1188h-192zM412 1640q31 219 213 220q59 0 139 -31l45 -19q63 -27 96 -26q37 0 60.5 17.5t30 33.5t12.5 43h102q-10 -96 -65.5 -159.5t-139.5 -63.5q-41 0 -121 26l-53 19q-90 31 -125 31q-68 0 -96 -91 h-98z" />
<glyph unicode="&#xd2;" horiz-adv-x="1593" d="M80 735.5q0 102.5 21.5 203.5t73.5 205.5t131 184.5t206 130t284.5 50t284.5 -50t206 -130t131 -184.5t73.5 -205.5t21.5 -203.5t-21.5 -204t-73.5 -206t-131 -184.5t-206 -130t-284.5 -50t-284.5 50t-206 130t-131 184.5t-73.5 206t-21.5 204zM285 735q0 -264 138 -431 t373.5 -167t374 167t138.5 431t-138.5 431t-374 167t-373.5 -167t-138 -431zM485 1903h222l182 -289h-137z" />
<glyph unicode="&#xd3;" horiz-adv-x="1593" d="M80 735.5q0 102.5 21.5 203.5t73.5 205.5t131 184.5t206 130t284.5 50t284.5 -50t206 -130t131 -184.5t73.5 -205.5t21.5 -203.5t-21.5 -204t-73.5 -206t-131 -184.5t-206 -130t-284.5 -50t-284.5 50t-206 130t-131 184.5t-73.5 206t-21.5 204zM285 735q0 -264 138 -431 t373.5 -167t374 167t138.5 431t-138.5 431t-374 167t-373.5 -167t-138 -431zM707 1614l182 289h221l-266 -289h-137z" />
<glyph unicode="&#xd4;" horiz-adv-x="1593" d="M80 735.5q0 102.5 21.5 203.5t73.5 205.5t131 184.5t206 130t284.5 50t284.5 -50t206 -130t131 -184.5t73.5 -205.5t21.5 -203.5t-21.5 -204t-73.5 -206t-131 -184.5t-206 -130t-284.5 -50t-284.5 50t-206 130t-131 184.5t-73.5 206t-21.5 204zM285 735q0 -264 138 -431 t373.5 -167t374 167t138.5 431t-138.5 431t-374 167t-373.5 -167t-138 -431zM500 1614l202 289h191l203 -289h-164l-135 190l-135 -190h-162z" />
<glyph unicode="&#xd5;" horiz-adv-x="1593" d="M80 735.5q0 102.5 21.5 203.5t73.5 205.5t131 184.5t206 130t284.5 50t284.5 -50t206 -130t131 -184.5t73.5 -205.5t21.5 -203.5t-21.5 -204t-73.5 -206t-131 -184.5t-206 -130t-284.5 -50t-284.5 50t-206 130t-131 184.5t-73.5 206t-21.5 204zM285 735q0 -264 138 -431 t373.5 -167t374 167t138.5 431t-138.5 431t-374 167t-373.5 -167t-138 -431zM449 1640q31 219 213 220q59 0 139 -31l45 -19q63 -27 96 -26q37 0 60.5 17.5t29.5 33.5t12 43h103q-10 -96 -65.5 -159.5t-139.5 -63.5q-41 0 -121 26l-53 19q-90 31 -125 31q-68 0 -96 -91h-98z " />
<glyph unicode="&#xd6;" horiz-adv-x="1593" d="M80 735.5q0 102.5 21.5 203.5t73.5 205.5t131 184.5t206 130t284.5 50t284.5 -50t206 -130t131 -184.5t73.5 -205.5t21.5 -203.5t-21.5 -204t-73.5 -206t-131 -184.5t-206 -130t-284.5 -50t-284.5 50t-206 130t-131 184.5t-73.5 206t-21.5 204zM285 735q0 -264 138 -431 t373.5 -167t374 167t138.5 431t-138.5 431t-374 167t-373.5 -167t-138 -431zM539 1636v209h186v-209h-186zM870 1636v209h187v-209h-187z" />
<glyph unicode="&#xd7;" horiz-adv-x="1196" d="M80 104l414 414l-414 414l106 104l412 -411l414 411l104 -104l-411 -414l411 -414l-104 -104l-414 412l-414 -412z" />
<glyph unicode="&#xd8;" horiz-adv-x="1593" d="M80 735q0 102 21.5 203.5t73.5 206t131 184.5t206 130t285 50q307 0 489 -182l166 182l64 -61l-170 -186q168 -215 167 -527q0 -102 -21.5 -203.5t-73.5 -206t-131 -184.5t-206 -130t-284 -50q-299 0 -484 178l-163 -178l-66 57l170 185q-174 217 -174 532zM285 735 q0 -223 104 -385l766 834q-137 150 -358 149q-236 0 -374 -167t-138 -431zM444 283q135 -145 353 -146q236 0 374 167t138 431q-1 227 -101 377z" />
<glyph unicode="&#xd9;" horiz-adv-x="1478" d="M162 489v981h198v-925q0 -115 33 -198t88.5 -127t118 -63.5t133.5 -19.5q74 0 138.5 19.5t123 62.5t92 125t33.5 197v929h199v-954q0 -240 -151.5 -397.5t-440.5 -157.5q-279 0 -422 152.5t-143 375.5zM428 1903h221l182 -289h-137z" />
<glyph unicode="&#xda;" horiz-adv-x="1478" d="M162 489v981h198v-925q0 -115 33 -198t88.5 -127t118 -63.5t133.5 -19.5q74 0 138.5 19.5t123 62.5t92 125t33.5 197v929h199v-954q0 -240 -151.5 -397.5t-440.5 -157.5q-279 0 -422 152.5t-143 375.5zM649 1614l182 289h222l-267 -289h-137z" />
<glyph unicode="&#xdb;" horiz-adv-x="1478" d="M162 489v981h198v-925q0 -115 33 -198t88.5 -127t118 -63.5t133.5 -19.5q74 0 138.5 19.5t123 62.5t92 125t33.5 197v929h199v-954q0 -240 -151.5 -397.5t-440.5 -157.5q-279 0 -422 152.5t-143 375.5zM442 1614l203 289h191l202 -289h-164l-135 190l-135 -190h-162z" />
<glyph unicode="&#xdc;" horiz-adv-x="1478" d="M162 489v981h198v-925q0 -115 33 -198t88.5 -127t118 -63.5t133.5 -19.5q74 0 138.5 19.5t123 62.5t92 125t33.5 197v929h199v-954q0 -240 -151.5 -397.5t-440.5 -157.5q-279 0 -422 152.5t-143 375.5zM481 1636v209h187v-209h-187zM813 1636v209h186v-209h-186z" />
<glyph unicode="&#xdd;" horiz-adv-x="1366" d="M29 1470h231l422 -706l422 706h233l-555 -878v-592h-198v592zM592 1614l182 289h221l-266 -289h-137z" />
<glyph unicode="&#xde;" horiz-adv-x="1366" d="M176 0v1470h199v-243h463q201 0 318.5 -116t117.5 -298q0 -111 -40 -205t-142.5 -162.5t-253.5 -68.5h-463v-377h-199zM375 547h395q299 0 299 264q0 246 -291 246h-403v-510z" />
<glyph unicode="&#xdf;" horiz-adv-x="1251" d="M137 0v1090q0 182 124 291.5t349.5 109.5t357.5 -100.5t132 -268.5q0 -70 -17.5 -125t-51.5 -92t-51 -51t-48 -35q106 -29 171.5 -130t65.5 -202q0 -260 -141 -389t-375 -129q-41 0 -108 15v153q45 -6 90 -6q348 0 348 307q0 287 -348 287q-47 0 -80 -8v162q37 -4 47 -5 q317 0 318 232q0 102 -81 165.5t-231 63.5q-164 0 -227.5 -73.5t-63.5 -217.5v-1044h-180z" />
<glyph unicode="&#xe0;" d="M74 279q0 35 5 66.5t24.5 78.5t52 83t95 66.5t148.5 40.5l297 37q94 8 95 127q0 174 -252 174q-72 0 -122 -19.5t-75 -55t-34 -63.5t-15 -69h-166q12 356 442 357q35 0 75 -4t101.5 -22.5t107.5 -48.5t80 -88t34 -136v-617q0 -63 59 -63q18 0 59 8v-131q-78 -20 -98 -20 q-109 0 -146.5 44t-43.5 119q-160 -174 -387 -174q-147 0 -241.5 86t-94.5 224zM258 1503h221l183 -289h-138zM260 305q0 -186 195 -186q129 0 230 74t101 178v176q-45 -35 -297 -68q-43 -6 -74.5 -14t-71.5 -25.5t-61.5 -52.5t-21.5 -82z" />
<glyph unicode="&#xe1;" d="M74 279q0 35 5 66.5t24.5 78.5t52 83t95 66.5t148.5 40.5l297 37q94 8 95 127q0 174 -252 174q-72 0 -122 -19.5t-75 -55t-34 -63.5t-15 -69h-166q12 356 442 357q35 0 75 -4t101.5 -22.5t107.5 -48.5t80 -88t34 -136v-617q0 -63 59 -63q18 0 59 8v-131q-78 -20 -98 -20 q-109 0 -146.5 44t-43.5 119q-160 -174 -387 -174q-147 0 -241.5 86t-94.5 224zM260 305q0 -186 195 -186q129 0 230 74t101 178v176q-45 -35 -297 -68q-43 -6 -74.5 -14t-71.5 -25.5t-61.5 -52.5t-21.5 -82zM479 1214l183 289h221l-267 -289h-137z" />
<glyph unicode="&#xe2;" d="M74 279q0 35 5 66.5t24.5 78.5t52 83t95 66.5t148.5 40.5l297 37q94 8 95 127q0 174 -252 174q-72 0 -122 -19.5t-75 -55t-34 -63.5t-15 -69h-166q12 356 442 357q35 0 75 -4t101.5 -22.5t107.5 -48.5t80 -88t34 -136v-617q0 -63 59 -63q18 0 59 8v-131q-78 -20 -98 -20 q-109 0 -146.5 44t-43.5 119q-160 -174 -387 -174q-147 0 -241.5 86t-94.5 224zM260 305q0 -186 195 -186q129 0 230 74t101 178v176q-45 -35 -297 -68q-43 -6 -74.5 -14t-71.5 -25.5t-61.5 -52.5t-21.5 -82zM272 1214l203 289h191l202 -289h-163l-136 191l-135 -191h-162z " />
<glyph unicode="&#xe3;" d="M74 279q0 35 5 66.5t24.5 78.5t52 83t95 66.5t148.5 40.5l297 37q94 8 95 127q0 174 -252 174q-72 0 -122 -19.5t-75 -55t-34 -63.5t-15 -69h-166q12 356 442 357q35 0 75 -4t101.5 -22.5t107.5 -48.5t80 -88t34 -136v-617q0 -63 59 -63q18 0 59 8v-131q-78 -20 -98 -20 q-109 0 -146.5 44t-43.5 119q-160 -174 -387 -174q-147 0 -241.5 86t-94.5 224zM201 1241q31 219 213 219q59 0 139 -30l45 -19q63 -27 96 -27q37 0 60.5 17.5t30 34t12.5 43.5h102q-10 -96 -65.5 -160t-139.5 -64q-41 0 -121 27l-53 18q-90 31 -125 31q-68 0 -96 -90h-98z M260 305q0 -186 195 -186q129 0 230 74t101 178v176q-45 -35 -297 -68q-43 -6 -74.5 -14t-71.5 -25.5t-61.5 -52.5t-21.5 -82z" />
<glyph unicode="&#xe4;" d="M74 279q0 35 5 66.5t24.5 78.5t52 83t95 66.5t148.5 40.5l297 37q94 8 95 127q0 174 -252 174q-72 0 -122 -19.5t-75 -55t-34 -63.5t-15 -69h-166q12 356 442 357q35 0 75 -4t101.5 -22.5t107.5 -48.5t80 -88t34 -136v-617q0 -63 59 -63q18 0 59 8v-131q-78 -20 -98 -20 q-109 0 -146.5 44t-43.5 119q-160 -174 -387 -174q-147 0 -241.5 86t-94.5 224zM260 305q0 -186 195 -186q129 0 230 74t101 178v176q-45 -35 -297 -68q-43 -6 -74.5 -14t-71.5 -25.5t-61.5 -52.5t-21.5 -82zM311 1237v209h187v-209h-187zM643 1237v209h186v-209h-186z" />
<glyph unicode="&#xe5;" d="M74 279q0 35 5 66.5t24.5 78.5t52 83t95 66.5t148.5 40.5l297 37q94 8 95 127q0 174 -252 174q-72 0 -122 -19.5t-75 -55t-34 -63.5t-15 -69h-166q12 356 442 357q35 0 75 -4t101.5 -22.5t107.5 -48.5t80 -88t34 -136v-617q0 -63 59 -63q18 0 59 8v-131q-78 -20 -98 -20 q-109 0 -146.5 44t-43.5 119q-160 -174 -387 -174q-147 0 -241.5 86t-94.5 224zM260 305q0 -186 195 -186q129 0 230 74t101 178v176q-45 -35 -297 -68q-43 -6 -74.5 -14t-71.5 -25.5t-61.5 -52.5t-21.5 -82zM383 1360q0 82 53 135t135 53t135.5 -53t53.5 -135t-53.5 -135.5 t-135.5 -53.5t-135 53.5t-53 135.5zM465 1360q0 -45 30.5 -76t75.5 -31t76 31t31 76t-31 75.5t-76 30.5t-75.5 -30.5t-30.5 -75.5z" />
<glyph unicode="&#xe6;" horiz-adv-x="1820" d="M74 279q0 35 5 66.5t24.5 78.5t52 83t95 66.5t148.5 40.5l297 37q94 8 95 127q0 174 -252 174q-72 0 -122 -19.5t-75 -55t-34 -63.5t-15 -69h-166q12 356 442 357q96 0 167 -24.5t101.5 -49t80.5 -78.5q82 80 137 107q92 45 219 45q227 0 344 -167t117 -458h-783 q0 -170 79 -261t233 -91q117 0 193.5 70.5t82.5 140.5h180q-6 -57 -54 -145.5t-136 -147.5q-111 -74 -291 -74q-268 0 -393 224q-147 -223 -436 -224q-147 0 -241.5 86t-94.5 224zM260 305q0 -186 195 -186q129 0 230 74t101 178v176q-45 -35 -297 -68q-43 -6 -74.5 -14 t-71.5 -25.5t-61.5 -52.5t-21.5 -82zM952 621h596q-20 319 -299 319q-123 0 -210 -96t-87 -223z" />
<glyph unicode="&#xe7;" horiz-adv-x="1024" d="M61 506q0 264 130.5 430t383.5 166q193 0 291.5 -115t110.5 -276h-174q-37 229 -254 229q-154 0 -224.5 -119t-70.5 -284q0 -412 293 -412q92 0 162.5 66.5t93.5 187.5h174q-6 -66 -28.5 -128.5t-65.5 -123.5t-117 -102t-170 -50l-76 -102q45 8 64 8q90 0 131 -47 t41 -106q0 -82 -65.5 -135.5t-176.5 -53.5q-91 0 -197 45l35 82q78 -31 133 -31q115 0 115 86q0 41 -32.5 60.5t-65.5 19.5q-23 0 -80 -16l-35 39l111 149q-203 14 -320 162t-117 371z" />
<glyph unicode="&#xe8;" d="M82 506q0 264 130 430t384 166q227 0 344 -167t117 -458h-783q0 -170 79 -261t233 -91q117 0 193.5 70.5t82.5 140.5h180q-6 -57 -54 -145.5t-136 -147.5q-111 -74 -291 -74q-221 0 -350 149.5t-129 387.5zM258 1503h221l183 -289h-138zM274 621h596q-20 319 -299 319 q-123 0 -210 -96t-87 -223z" />
<glyph unicode="&#xe9;" d="M82 506q0 264 130 430t384 166q227 0 344 -167t117 -458h-783q0 -170 79 -261t233 -91q117 0 193.5 70.5t82.5 140.5h180q-6 -57 -54 -145.5t-136 -147.5q-111 -74 -291 -74q-221 0 -350 149.5t-129 387.5zM274 621h596q-20 319 -299 319q-123 0 -210 -96t-87 -223z M479 1214l183 289h221l-267 -289h-137z" />
<glyph unicode="&#xea;" d="M82 506q0 264 130 430t384 166q227 0 344 -167t117 -458h-783q0 -170 79 -261t233 -91q117 0 193.5 70.5t82.5 140.5h180q-6 -57 -54 -145.5t-136 -147.5q-111 -74 -291 -74q-221 0 -350 149.5t-129 387.5zM272 1214l203 289h191l202 -289h-163l-136 191l-135 -191h-162z M274 621h596q-20 319 -299 319q-123 0 -210 -96t-87 -223z" />
<glyph unicode="&#xeb;" d="M82 506q0 264 130 430t384 166q227 0 344 -167t117 -458h-783q0 -170 79 -261t233 -91q117 0 193.5 70.5t82.5 140.5h180q-6 -57 -54 -145.5t-136 -147.5q-111 -74 -291 -74q-221 0 -350 149.5t-129 387.5zM274 621h596q-20 319 -299 319q-123 0 -210 -96t-87 -223z M311 1237v209h187v-209h-187zM643 1237v209h186v-209h-186z" />
<glyph unicode="&#xec;" horiz-adv-x="569" d="M-27 1503h222l182 -289h-137zM195 0v1071h180v-1071h-180z" />
<glyph unicode="&#xed;" horiz-adv-x="569" d="M195 0v1071h180v-1071h-180zM195 1214l182 289h221l-266 -289h-137z" />
<glyph unicode="&#xee;" horiz-adv-x="569" d="M-12 1214l202 289h191l203 -289h-164l-135 191l-135 -191h-162zM195 0v1071h180v-1071h-180z" />
<glyph unicode="&#xef;" horiz-adv-x="569" d="M27 1237v209h186v-209h-186zM195 0v1071h180v-1071h-180zM358 1237v209h187v-209h-187z" />
<glyph unicode="&#xf0;" d="M72 520q0 219 126 385t343 166q168 0 272 -113l4 5q-63 158 -227 290l-254 -127l-86 86l242 117q-84 66 -183 107l152 73q106 -41 186 -104l217 104l97 -82l-220 -104q158 -145 243 -330.5t85 -382.5q0 -176 -45 -306t-119 -199.5t-153.5 -102.5t-165.5 -33 q-129 0 -230.5 47t-162 127t-91 176.5t-30.5 200.5zM258 520q0 -39 7 -85t27.5 -102.5t53.5 -101.5t91.5 -75.5t132 -30.5t132 30.5t91 75.5t53 101.5t28 102.5t7.5 85t-7.5 85t-28 102.5t-53 101.5t-91 75.5t-132 30.5t-132 -30.5t-91.5 -75.5t-53.5 -101.5t-27.5 -102.5 t-7 -85z" />
<glyph unicode="&#xf1;" d="M133 0v1071h170v-151h4q123 182 324 182q53 0 102 -9.5t100.5 -35t88 -65.5t60.5 -107.5t24 -155.5v-729h-181v659q0 145 -51 213t-178 68q-45 0 -89 -15.5t-90 -52t-75 -111.5t-29 -177v-584h-180zM201 1241q31 219 213 219q59 0 139 -30l45 -19q63 -27 96 -27 q37 0 60.5 17.5t30 34t12.5 43.5h102q-10 -96 -65.5 -160t-139.5 -64q-41 0 -121 27l-53 18q-90 31 -125 31q-68 0 -96 -90h-98z" />
<glyph unicode="&#xf2;" d="M72 536.5q0 229.5 129 397.5t368.5 168t368.5 -168t129 -397.5t-129 -397.5t-368.5 -168t-368.5 168t-129 397.5zM258 536.5q0 -63.5 13.5 -126t45 -131t97 -110.5t155.5 -42t156 42t97.5 110.5t45 131t13.5 126t-13.5 126t-45 131t-97.5 110.5t-156 42t-155.5 -42 t-97 -110.5t-45 -131t-13.5 -126zM258 1503h221l183 -289h-138z" />
<glyph unicode="&#xf3;" d="M72 536.5q0 229.5 129 397.5t368.5 168t368.5 -168t129 -397.5t-129 -397.5t-368.5 -168t-368.5 168t-129 397.5zM258 536.5q0 -63.5 13.5 -126t45 -131t97 -110.5t155.5 -42t156 42t97.5 110.5t45 131t13.5 126t-13.5 126t-45 131t-97.5 110.5t-156 42t-155.5 -42 t-97 -110.5t-45 -131t-13.5 -126zM479 1214l183 289h221l-267 -289h-137z" />
<glyph unicode="&#xf4;" d="M72 536.5q0 229.5 129 397.5t368.5 168t368.5 -168t129 -397.5t-129 -397.5t-368.5 -168t-368.5 168t-129 397.5zM258 536.5q0 -63.5 13.5 -126t45 -131t97 -110.5t155.5 -42t156 42t97.5 110.5t45 131t13.5 126t-13.5 126t-45 131t-97.5 110.5t-156 42t-155.5 -42 t-97 -110.5t-45 -131t-13.5 -126zM272 1214l203 289h191l202 -289h-163l-136 191l-135 -191h-162z" />
<glyph unicode="&#xf5;" d="M72 536.5q0 229.5 129 397.5t368.5 168t368.5 -168t129 -397.5t-129 -397.5t-368.5 -168t-368.5 168t-129 397.5zM221 1241q31 219 213 219q59 0 139 -30l45 -19q63 -27 97 -27q37 0 60.5 17.5t29.5 34t12 43.5h103q-10 -96 -65.5 -160t-139.5 -64q-41 0 -121 27l-53 18 q-90 31 -125 31q-68 0 -97 -90h-98zM258 536.5q0 -63.5 13.5 -126t45 -131t97 -110.5t155.5 -42t156 42t97.5 110.5t45 131t13.5 126t-13.5 126t-45 131t-97.5 110.5t-156 42t-155.5 -42t-97 -110.5t-45 -131t-13.5 -126z" />
<glyph unicode="&#xf6;" d="M72 536.5q0 229.5 129 397.5t368.5 168t368.5 -168t129 -397.5t-129 -397.5t-368.5 -168t-368.5 168t-129 397.5zM258 536.5q0 -63.5 13.5 -126t45 -131t97 -110.5t155.5 -42t156 42t97.5 110.5t45 131t13.5 126t-13.5 126t-45 131t-97.5 110.5t-156 42t-155.5 -42 t-97 -110.5t-45 -131t-13.5 -126zM311 1237v209h187v-209h-187zM643 1237v209h186v-209h-186z" />
<glyph unicode="&#xf7;" horiz-adv-x="1196" d="M80 442v150h1036v-150h-1036zM459 100.5q0 57.5 42 98.5t97 41q57 0 98 -41t41 -99q0 -53 -42 -96t-97 -43t-97 41t-42 98.5zM459 934q0 57 42 98t97 41q57 0 98 -41t41 -98q0 -53 -42 -96t-97 -43t-97 41t-42 98z" />
<glyph unicode="&#xf8;" horiz-adv-x="1251" d="M57 8l131 148q-117 156 -116 381q0 229 129 397t368 168q207 0 336 -133l131 147l64 -53l-142 -160q109 -152 109 -366q0 -229 -129 -397.5t-369 -168.5q-199 0 -325 123l-123 -139zM258 537q0 -135 51 -244l484 547q-82 106 -224 106q-90 0 -155.5 -42t-97 -110.5 t-45 -131t-13.5 -125.5zM356 221q76 -94 213 -94q90 0 156 42t97.5 110.5t45 131t13.5 126.5q0 129 -45 227z" />
<glyph unicode="&#xf9;" d="M139 301v770h180v-711q0 -236 207 -235q82 0 141.5 32.5t92.5 88t47 114t14 121.5v590h180v-1071h-170v156l-4 4q-59 -98 -137 -144.5t-203 -46.5q-141 0 -244.5 79t-103.5 253zM258 1503h221l183 -289h-138z" />
<glyph unicode="&#xfa;" d="M139 301v770h180v-711q0 -236 207 -235q82 0 141.5 32.5t92.5 88t47 114t14 121.5v590h180v-1071h-170v156l-4 4q-59 -98 -137 -144.5t-203 -46.5q-141 0 -244.5 79t-103.5 253zM479 1214l183 289h221l-267 -289h-137z" />
<glyph unicode="&#xfb;" d="M139 301v770h180v-711q0 -236 207 -235q82 0 141.5 32.5t92.5 88t47 114t14 121.5v590h180v-1071h-170v156l-4 4q-59 -98 -137 -144.5t-203 -46.5q-141 0 -244.5 79t-103.5 253zM272 1214l203 289h191l202 -289h-163l-136 191l-135 -191h-162z" />
<glyph unicode="&#xfc;" d="M139 301v770h180v-711q0 -236 207 -235q82 0 141.5 32.5t92.5 88t47 114t14 121.5v590h180v-1071h-170v156l-4 4q-59 -98 -137 -144.5t-203 -46.5q-141 0 -244.5 79t-103.5 253zM311 1237v209h187v-209h-187zM643 1237v209h186v-209h-186z" />
<glyph unicode="&#xfd;" horiz-adv-x="1024" d="M23 1071h204l285 -872h4l287 872h198q-270 -760 -385 -1051q-49 -125 -73.5 -186t-59 -123.5t-54 -84t-58.5 -41t-74 -21.5t-100 -2q-18 0 -76 16v164q51 -18 108 -18q68 0 95.5 37.5t95.5 209.5zM422 1214l182 289h221l-266 -289h-137z" />
<glyph unicode="&#xfe;" d="M119 -424v1894h180v-546h4q20 33 37.5 54t55.5 54t93.5 51.5t122.5 18.5q207 0 327 -150.5t120 -384.5q0 -104 -23.5 -202.5t-74 -190.5t-147.5 -148.5t-226 -56.5q-195 0 -285 144h-4v-537h-180zM291 485q0 -190 91 -275t202 -85q141 0 214.5 113.5t73.5 300.5 q0 401 -292 401q-289 0 -289 -455z" />
<glyph unicode="&#xff;" horiz-adv-x="1024" d="M23 1071h204l285 -872h4l287 872h198q-270 -760 -385 -1051q-49 -125 -73.5 -186t-59 -123.5t-54 -84t-58.5 -41t-74 -21.5t-100 -2q-18 0 -76 16v164q51 -18 108 -18q68 0 95.5 37.5t95.5 209.5zM254 1237v209h186v-209h-186zM586 1237v209h186v-209h-186z" />
<glyph unicode="&#x152;" horiz-adv-x="2048" d="M74 727q0 96 15 192.5t58 206t111 192.5t182.5 137t261.5 54q252 0 365 -188h4v149h901v-176h-715v-450h682v-176h-682v-492h719v-176h-907v154h-4q-47 -61 -79 -93t-115 -66t-197 -34q-283 0 -441.5 213t-158.5 553zM279 694q0 -178 51 -307q55 -133 145 -194.5 t256 -61.5q121 0 224.5 86t103.5 254v537q0 152 -98.5 241.5t-255.5 89.5q-113 0 -196 -50t-126 -118.5t-67.5 -166t-30.5 -166t-6 -144.5z" />
<glyph unicode="&#x153;" horiz-adv-x="1933" d="M72 536.5q0 229.5 129 397.5t368 168q272 -4 402 -217q141 217 415 217q227 0 344 -167t117 -458h-784q0 -170 80 -261t233 -91q117 0 194 70.5t83 140.5h180q-6 -57 -54 -145.5t-137 -147.5q-111 -74 -290 -74q-256 0 -398 207q-35 -68 -88 -113t-112.5 -63 t-101.5 -23.5t-83 -5.5q-240 0 -368.5 168t-128.5 397.5zM258 536.5q0 -63.5 13.5 -126t45 -131t97 -110.5t155.5 -42t156 42t97.5 110.5t45 131t13.5 126t-13.5 126t-45 131t-97.5 110.5t-156 42t-155.5 -42t-97 -110.5t-45 -131t-13.5 -126zM1063 621h598 q-20 319 -299 319q-123 0 -211 -96t-88 -223z" />
<glyph unicode="&#x178;" horiz-adv-x="1366" d="M29 1470h231l422 -706l422 706h233l-555 -878v-592h-198v592zM424 1636v209h186v-209h-186zM756 1636v209h186v-209h-186z" />
<glyph unicode="&#x2c6;" horiz-adv-x="681" d="M43 1214l203 289h190l203 -289h-164l-135 191l-135 -191h-162z" />
<glyph unicode="&#x2dc;" horiz-adv-x="681" d="M-8 1241q31 219 213 219q59 0 139 -30l45 -19q63 -27 96 -27q37 0 60.5 17.5t30 34t12.5 43.5h102q-10 -96 -65.5 -160t-139.5 -64q-41 0 -120 27l-54 18q-90 31 -125 31q-68 0 -96 -90h-98z" />
<glyph unicode="&#x2000;" horiz-adv-x="953" />
<glyph unicode="&#x2001;" horiz-adv-x="1907" />
<glyph unicode="&#x2002;" horiz-adv-x="953" />
<glyph unicode="&#x2003;" horiz-adv-x="1907" />
<glyph unicode="&#x2004;" horiz-adv-x="635" />
<glyph unicode="&#x2005;" horiz-adv-x="476" />
<glyph unicode="&#x2006;" horiz-adv-x="317" />
<glyph unicode="&#x2007;" horiz-adv-x="317" />
<glyph unicode="&#x2008;" horiz-adv-x="238" />
<glyph unicode="&#x2009;" horiz-adv-x="381" />
<glyph unicode="&#x200a;" horiz-adv-x="105" />
<glyph unicode="&#x2010;" horiz-adv-x="681" d="M90 475v184h502v-184h-502z" />
<glyph unicode="&#x2011;" horiz-adv-x="681" d="M90 475v184h502v-184h-502z" />
<glyph unicode="&#x2012;" horiz-adv-x="681" d="M90 475v184h502v-184h-502z" />
<glyph unicode="&#x2013;" d="M0 492v149h1139v-149h-1139z" />
<glyph unicode="&#x2014;" horiz-adv-x="2048" d="M0 492v149h2048v-149h-2048z" />
<glyph unicode="&#x2018;" horiz-adv-x="454" d="M133 963v200q0 272 213 322v-96q-109 -16 -108 -209h108v-217h-213z" />
<glyph unicode="&#x2019;" horiz-adv-x="454" d="M109 948v96q109 16 108 209h-108v217h213v-200q0 -272 -213 -322z" />
<glyph unicode="&#x201a;" horiz-adv-x="454" d="M109 0v217h213v-201q0 -272 -213 -321v96q109 16 108 209h-108z" />
<glyph unicode="&#x201c;" horiz-adv-x="681" d="M78 963v200q0 272 213 322v-96q-109 -16 -109 -209h109v-217h-213zM416 963v200q0 272 213 322v-96q-109 -16 -109 -209h109v-217h-213z" />
<glyph unicode="&#x201d;" horiz-adv-x="681" d="M53 948v96q109 16 109 209h-109v217h213v-200q0 -272 -213 -322zM391 948v96q109 16 109 209h-109v217h213v-200q0 -272 -213 -322z" />
<glyph unicode="&#x201e;" horiz-adv-x="681" d="M53 0v217h213v-201q0 -272 -213 -321v96q109 16 109 209h-109zM391 0v217h213v-201q0 -272 -213 -321v96q109 16 109 209h-109z" />
<glyph unicode="&#x2022;" horiz-adv-x="716" d="M37 735q0 135 93 229.5t228 94.5q133 0 228.5 -95.5t95.5 -228.5t-95 -227t-228.5 -94t-227.5 93t-94 228z" />
<glyph unicode="&#x2026;" horiz-adv-x="2048" d="M236 0v217h213v-217h-213zM918 0v217h212v-217h-212zM1599 0v217h213v-217h-213z" />
<glyph unicode="&#x202f;" horiz-adv-x="381" />
<glyph unicode="&#x2039;" horiz-adv-x="681" d="M180 473v189l322 251v-180l-215 -166l215 -166v-180z" />
<glyph unicode="&#x203a;" horiz-adv-x="681" d="M180 221v180l215 166l-215 166v180l322 -251v-189z" />
<glyph unicode="&#x205f;" horiz-adv-x="476" />
<glyph unicode="&#x2122;" horiz-adv-x="2048" d="M94 1348v122h670v-122h-260v-721h-150v721h-260zM911 627v843h230l241 -620l238 620h229v-843h-149v686h-4l-264 -686h-103l-264 686h-4v-686h-150z" />
<glyph unicode="&#xe000;" horiz-adv-x="1075" d="M0 0v1075h1075v-1075h-1075z" />
<glyph unicode="&#xfb01;" horiz-adv-x="1024" d="M29 922v149h147v184q0 236 279 236q25 0 82 -4v-162q-45 4 -74 4q-57 0 -82 -29.5t-25 -95.5v-133h181v-149h-181v-922h-180v922h-147zM709 0v1071h180v-1071h-180zM709 1266v204h180v-204h-180z" />
<glyph unicode="&#xfb02;" horiz-adv-x="1024" d="M29 922v149h147v184q0 236 279 236q25 0 82 -4v-162q-45 4 -74 4q-57 0 -82 -29.5t-25 -95.5v-133h181v-149h-181v-922h-180v922h-147zM705 0v1470h180v-1470h-180z" />
</font>
</defs>
</svg>
